# xmcd
#
# Track frame offsets: 
#        150
#        9708
#        21941
#        32142
#        43399
#        55763
#        63680
#        74372
#        79052
#        92887
#        103221
#        114732
#        127388
#        137486
#        149031
#        159574
#        172462
#        184814
#        195666
#        211019
#
# Disc length: 2942 seconds
#
# Revision: 1
# Processed by: cddbd v1.5.2PL0 Copyright (c) Steve Scherf et al.
# Submitted via: ExactAudioCopyFreeDBPlugin 1.0
#
DISCID=3e0b7c14
DTITLE=Various Artist - Country Music
DYEAR=2009
DGENRE=Country
TTITLE0=Glen Cambell - Gentle On My Mind
TTITLE1=George Jones - She Thinks I Still Care
TTITLE2=Loretta Lynn - You're Looking At Country
TTITLE3=Patsy Cline - Walkin' After Midnight
TTITLE4=Willie Nelson - Shelter Of Your Arms
TTITLE5=Johnny Cash - Wreck Of The Old 97
TTITLE6=Patsy Cline - I Cried All The Way To The Alter
TTITLE7=Merle Haggard - Swinging Doors
TTITLE8=Lynn Anderson - Cry
TTITLE9=Waylon Jennings - Lorena
TTITLE10=George Jones - White Lightning
TTITLE11=Charley Pride - Chrystal Chandeliers
TTITLE12=Carl Perkins - Blue Suede Shoes
TTITLE13=Buck Owens - Foolin' Around
TTITLE14=Billie Jo Spears - I'm So Lonesome I Could Cry
TTITLE15=Glen Cambell - Rhinestone Cowboy
TTITLE16=Merle Haggard - Workin' Man Blues
TTITLE17=Dolly Parton - It Wasn't God Who Made Honky Tonk Angels
TTITLE18=Anne Murray - There Goes My Everything
TTITLE19=Elvis Presley - Heartbreak Hotel
EXTD=YEAR: 2009
EXTT0=
EXTT1=
EXTT2=
EXTT3=
EXTT4=
EXTT5=
EXTT6=
EXTT7=
EXTT8=
EXTT9=
EXTT10=
EXTT11=
EXTT12=
EXTT13=
EXTT14=
EXTT15=
EXTT16=
EXTT17=
EXTT18=
EXTT19=
PLAYORDER=
